<svg width="223" height="203" viewBox="0 0 223 203" fill="none" xmlns="http://www.w3.org/2000/svg">
<path d="M157.875 176.917H100.583V135.25H173.5V93.5833H215.167V176.917H189.125L173.5 192.542L157.875 176.917Z" stroke="#F5F5F5" stroke-width="4" stroke-linecap="round" stroke-linejoin="round"/>
<path d="M6.83325 10.25H173.5V135.25H74.5416L53.7083 156.083L32.8749 135.25H6.83325V10.25Z" stroke="#F5F5F5" stroke-width="4" stroke-linecap="round" stroke-linejoin="round"/>
<path opacity="0.2" d="M119.871 46.6527V79.2575C119.871 83.7645 118.983 88.2275 117.259 92.3915C115.534 96.5555 113.006 100.339 109.819 103.526C106.632 106.713 102.848 109.241 98.6843 110.966C94.5203 112.691 90.0574 113.578 85.5503 113.578C66.5967 113.578 59.488 104.449 45.5151 74.9674C44.3952 72.9977 44.0999 70.6651 44.6936 68.4785C45.2872 66.2919 46.7216 64.4288 48.6838 63.2959C50.646 62.163 52.9766 61.8522 55.1671 62.4314C57.3576 63.0105 59.2301 64.4325 60.376 66.3872L68.3899 79.2575V39.7885C68.3899 37.5129 69.2939 35.3305 70.903 33.7214C72.5121 32.1123 74.6945 31.2083 76.9701 31.2083C79.2457 31.2083 81.4281 32.1123 83.0372 33.7214C84.6463 35.3305 85.5503 37.5129 85.5503 39.7885V32.9244C85.5503 30.6488 86.4543 28.4664 88.0634 26.8573C89.6725 25.2482 91.8549 24.3442 94.1305 24.3442C96.4061 24.3442 98.5886 25.2482 100.198 26.8573C101.807 28.4664 102.711 30.6488 102.711 32.9244V46.6527C102.711 44.3771 103.615 42.1947 105.224 40.5856C106.833 38.9765 109.015 38.0725 111.291 38.0725C113.567 38.0725 115.749 38.9765 117.358 40.5856C118.967 42.1947 119.871 44.3771 119.871 46.6527Z" fill="#F5F5F5"/>
<path d="M111.291 34.6404C109.51 34.6379 107.75 35.0352 106.143 35.803V32.9244C106.144 30.0614 105.122 27.2921 103.262 25.1157C101.402 22.9392 98.8261 21.4986 95.9979 21.0536C93.1697 20.6085 90.2755 21.1882 87.8369 22.6882C85.3983 24.1883 83.5757 26.5099 82.6974 29.2349C80.8681 28.2427 78.8125 27.7427 76.7318 27.784C74.6512 27.8253 72.617 28.4064 70.8285 29.4704C69.04 30.5344 67.5586 32.0448 66.5295 33.8536C65.5004 35.6624 64.9588 37.7075 64.9579 39.7885V67.2452L63.319 64.6154C61.7273 61.8684 59.1127 59.8633 56.0469 59.0383C52.9811 58.2134 49.7134 58.6357 46.958 60.2129C44.2027 61.7901 42.1838 64.394 41.3426 67.4555C40.5015 70.5169 40.9065 73.7868 42.4692 76.5504C49.3333 91.0381 54.8804 101.313 61.2255 107.735C67.6349 114.239 74.9109 117.01 85.5504 117.01C95.5596 116.999 105.156 113.018 112.233 105.94C119.311 98.8627 123.292 89.2667 123.303 79.2575V46.6527C123.303 43.4669 122.038 40.4115 119.785 38.1587C117.532 35.906 114.477 34.6404 111.291 34.6404ZM116.439 79.2575C116.43 87.4469 113.173 95.2983 107.382 101.089C101.591 106.88 93.7398 110.137 85.5504 110.146C76.8071 110.146 71.1742 108.053 66.1033 102.917C60.4275 97.1643 55.2022 87.4087 48.6126 73.5002C48.5742 73.4149 48.5313 73.3319 48.4839 73.2513C47.8012 72.0686 47.6163 70.6631 47.9699 69.344C48.3235 68.025 49.1866 66.9004 50.3694 66.2177C51.5521 65.535 52.9576 65.3501 54.2767 65.7037C55.5957 66.0573 56.7203 66.9205 57.403 68.1032C57.4208 68.1374 57.4408 68.1704 57.4631 68.2019L65.4727 81.0722C65.8661 81.7071 66.456 82.1963 67.1527 82.4655C67.8494 82.7348 68.6149 82.7694 69.3331 82.5642C70.0513 82.3589 70.6829 81.925 71.1321 81.3282C71.5813 80.7314 71.8235 80.0044 71.822 79.2575V39.7885C71.822 38.4232 72.3644 37.1137 73.3299 36.1483C74.2953 35.1828 75.6048 34.6404 76.9701 34.6404C78.3355 34.6404 79.645 35.1828 80.6104 36.1483C81.5759 37.1137 82.1183 38.4232 82.1183 39.7885V65.5291C82.1183 66.4394 82.4799 67.3124 83.1235 67.956C83.7671 68.5996 84.6401 68.9612 85.5504 68.9612C86.4606 68.9612 87.3336 68.5996 87.9772 67.956C88.6208 67.3124 88.9824 66.4394 88.9824 65.5291V32.9244C88.9824 31.559 89.5248 30.2496 90.4903 29.2841C91.4557 28.3187 92.7652 27.7763 94.1306 27.7763C95.4959 27.7763 96.8054 28.3187 97.7708 29.2841C98.7363 30.2496 99.2787 31.559 99.2787 32.9244V65.5291C99.2787 66.4394 99.6403 67.3124 100.284 67.956C100.928 68.5996 101.801 68.9612 102.711 68.9612C103.621 68.9612 104.494 68.5996 105.138 67.956C105.781 67.3124 106.143 66.4394 106.143 65.5291V46.6527C106.143 45.2873 106.685 43.9779 107.651 43.0124C108.616 42.047 109.926 41.5046 111.291 41.5046C112.656 41.5046 113.966 42.047 114.931 43.0124C115.897 43.9779 116.439 45.2873 116.439 46.6527V79.2575Z" fill="#F5F5F5"/>
</svg>
